{
  "asset": {
    "version": "2.0",
    "generator": "bold-and-brave-authored-asset"
  },
  "scene": 0,
  "scenes": [
    {
      "name": "poc-overworld",
      "nodes": [
        0,
        1,
        2
      ]
    }
  ],
  "nodes": [
    {
      "name": "poc-overworld-terrain",
      "mesh": 0,
      "translation": [
        0,
        0,
        0
      ]
    },
    {
      "name": "poc-settlement-landmark",
      "mesh": 1,
      "translation": [
        0,
        0,
        0
      ]
    },
    {
      "name": "poc-band-pawn",
      "mesh": 2,
      "translation": [
        0,
        0,
        1.5
      ]
    }
  ],
  "meshes": [
    {
      "name": "poc-overworld-terrain-mesh",
      "primitives": [
        {
          "attributes": {
            "POSITION": 0,
            "NORMAL": 1
          },
          "indices": 2,
          "material": 0
        },
        {
          "attributes": {
            "POSITION": 3,
            "NORMAL": 4
          },
          "indices": 5,
          "material": 1
        },
        {
          "attributes": {
            "POSITION": 6,
            "NORMAL": 7
          },
          "indices": 8,
          "material": 2
        },
        {
          "attributes": {
            "POSITION": 9,
            "NORMAL": 10
          },
          "indices": 11,
          "material": 3
        }
      ]
    },
    {
      "name": "poc-settlement-landmark-mesh",
      "primitives": [
        {
          "attributes": {
            "POSITION": 12,
            "NORMAL": 13
          },
          "indices": 14,
          "material": 4
        },
        {
          "attributes": {
            "POSITION": 15,
            "NORMAL": 16
          },
          "indices": 17,
          "material": 5
        },
        {
          "attributes": {
            "POSITION": 18,
            "NORMAL": 19
          },
          "indices": 20,
          "material": 7
        },
        {
          "attributes": {
            "POSITION": 21,
            "NORMAL": 22
          },
          "indices": 23,
          "material": 6
        }
      ]
    },
    {
      "name": "poc-band-pawn-mesh",
      "primitives": [
        {
          "attributes": {
            "POSITION": 24,
            "NORMAL": 25
          },
          "indices": 26,
          "material": 8
        },
        {
          "attributes": {
            "POSITION": 27,
            "NORMAL": 28
          },
          "indices": 29,
          "material": 9
        },
        {
          "attributes": {
            "POSITION": 30,
            "NORMAL": 31
          },
          "indices": 32,
          "material": 10
        },
        {
          "attributes": {
            "POSITION": 33,
            "NORMAL": 34
          },
          "indices": 35,
          "material": 11
        }
      ]
    }
  ],
  "materials": [
    {
      "name": "moor-grass",
      "pbrMetallicRoughness": {
        "baseColorFactor": [
          0.26,
          0.33,
          0.22,
          1.0
        ],
        "metallicFactor": 0.05,
        "roughnessFactor": 0.9
      }
    },
    {
      "name": "moor-road",
      "pbrMetallicRoughness": {
        "baseColorFactor": [
          0.42,
          0.36,
          0.28,
          1.0
        ],
        "metallicFactor": 0.05,
        "roughnessFactor": 0.85
      }
    },
    {
      "name": "moor-water",
      "pbrMetallicRoughness": {
        "baseColorFactor": [
          0.16,
          0.23,
          0.26,
          1.0
        ],
        "metallicFactor": 0.3,
        "roughnessFactor": 0.3
      }
    },
    {
      "name": "moor-rock",
      "pbrMetallicRoughness": {
        "baseColorFactor": [
          0.33,
          0.31,
          0.28,
          1.0
        ],
        "metallicFactor": 0.1,
        "roughnessFactor": 0.8
      }
    },
    {
      "name": "settlement-timber",
      "pbrMetallicRoughness": {
        "baseColorFactor": [
          0.28,
          0.21,
          0.15,
          1.0
        ],
        "metallicFactor": 0.05,
        "roughnessFactor": 0.85
      }
    },
    {
      "name": "settlement-thatch",
      "pbrMetallicRoughness": {
        "baseColorFactor": [
          0.44,
          0.34,
          0.22,
          1.0
        ],
        "metallicFactor": 0.05,
        "roughnessFactor": 0.9
      }
    },
    {
      "name": "settlement-fence",
      "pbrMetallicRoughness": {
        "baseColorFactor": [
          0.36,
          0.28,
          0.2,
          1.0
        ],
        "metallicFactor": 0.05,
        "roughnessFactor": 0.85
      }
    },
    {
      "name": "settlement-soil",
      "pbrMetallicRoughness": {
        "baseColorFactor": [
          0.22,
          0.17,
          0.13,
          1.0
        ],
        "metallicFactor": 0.05,
        "roughnessFactor": 0.95
      }
    },
    {
      "name": "pawn-tabard",
      "pbrMetallicRoughness": {
        "baseColorFactor": [
          0.22,
          0.32,
          0.42,
          1.0
        ],
        "metallicFactor": 0.05,
        "roughnessFactor": 0.8
      }
    },
    {
      "name": "pawn-leather",
      "pbrMetallicRoughness": {
        "baseColorFactor": [
          0.18,
          0.13,
          0.1,
          1.0
        ],
        "metallicFactor": 0.1,
        "roughnessFactor": 0.7
      }
    },
    {
      "name": "pawn-shield",
      "pbrMetallicRoughness": {
        "baseColorFactor": [
          0.52,
          0.45,
          0.35,
          1.0
        ],
        "metallicFactor": 0.1,
        "roughnessFactor": 0.75
      }
    },
    {
      "name": "pawn-steel",
      "pbrMetallicRoughness": {
        "baseColorFactor": [
          0.55,
          0.55,
          0.58,
          1.0
        ],
        "metallicFactor": 0.6,
        "roughnessFactor": 0.4
      }
    }
  ],
  "buffers": [
    {
      "byteLength": 76720,
      "uri": "data:application/octet-stream;base64,"
    }
  ],
  "bufferViews": [
    {
      "buffer": 0,
      "byteOffset": 0,
      "byteLength": 20520,
      "target": 34962
    },
    {
      "buffer": 0,
      "byteOffset": 20520,
      "byteLength": 20520,
      "target": 34962
    },
    {
      "buffer": 0,
      "byteOffset": 41040,
      "byteLength": 3420,
      "target": 34963
    },
    {
      "buffer": 0,
      "byteOffset": 44460,
      "byteLength": 1368,
      "target": 34962
    },
    {
      "buffer": 0,
      "byteOffset": 45828,
      "byteLength": 1368,
      "target": 34962
    },
    {
      "buffer": 0,
      "byteOffset": 47196,
      "byteLength": 228,
      "target": 34963
    },
    {
      "buffer": 0,
      "byteOffset": 47424,
      "byteLength": 432,
      "target": 34962
    },
    {
      "buffer": 0,
      "byteOffset": 47856,
      "byteLength": 432,
      "target": 34962
    },
    {
      "buffer": 0,
      "byteOffset": 48288,
      "byteLength": 72,
      "target": 34963
    },
    {
      "buffer": 0,
      "byteOffset": 48360,
      "byteLength": 1440,
      "target": 34962
    },
    {
      "buffer": 0,
      "byteOffset": 49800,
      "byteLength": 1440,
      "target": 34962
    },
    {
      "buffer": 0,
      "byteOffset": 51240,
      "byteLength": 360,
      "target": 34963
    },
    {
      "buffer": 0,
      "byteOffset": 51600,
      "byteLength": 768,
      "target": 34962
    },
    {
      "buffer": 0,
      "byteOffset": 52368,
      "byteLength": 768,
      "target": 34962
    },
    {
      "buffer": 0,
      "byteOffset": 53136,
      "byteLength": 192,
      "target": 34963
    },
    {
      "buffer": 0,
      "byteOffset": 53328,
      "byteLength": 672,
      "target": 34962
    },
    {
      "buffer": 0,
      "byteOffset": 54000,
      "byteLength": 672,
      "target": 34962
    },
    {
      "buffer": 0,
      "byteOffset": 54672,
      "byteLength": 144,
      "target": 34963
    },
    {
      "buffer": 0,
      "byteOffset": 54816,
      "byteLength": 576,
      "target": 34962
    },
    {
      "buffer": 0,
      "byteOffset": 55392,
      "byteLength": 576,
      "target": 34962
    },
    {
      "buffer": 0,
      "byteOffset": 55968,
      "byteLength": 144,
      "target": 34963
    },
    {
      "buffer": 0,
      "byteOffset": 56112,
      "byteLength": 5184,
      "target": 34962
    },
    {
      "buffer": 0,
      "byteOffset": 61296,
      "byteLength": 5184,
      "target": 34962
    },
    {
      "buffer": 0,
      "byteOffset": 66480,
      "byteLength": 1296,
      "target": 34963
    },
    {
      "buffer": 0,
      "byteOffset": 67776,
      "byteLength": 1656,
      "target": 34962
    },
    {
      "buffer": 0,
      "byteOffset": 69432,
      "byteLength": 1656,
      "target": 34962
    },
    {
      "buffer": 0,
      "byteOffset": 71088,
      "byteLength": 408,
      "target": 34963
    },
    {
      "buffer": 0,
      "byteOffset": 71496,
      "byteLength": 1152,
      "target": 34962
    },
    {
      "buffer": 0,
      "byteOffset": 72648,
      "byteLength": 1152,
      "target": 34962
    },
    {
      "buffer": 0,
      "byteOffset": 73800,
      "byteLength": 288,
      "target": 34963
    },
    {
      "buffer": 0,
      "byteOffset": 74088,
      "byteLength": 504,
      "target": 34962
    },
    {
      "buffer": 0,
      "byteOffset": 74592,
      "byteLength": 504,
      "target": 34962
    },
    {
      "buffer": 0,
      "byteOffset": 75096,
      "byteLength": 120,
      "target": 34963
    },
    {
      "buffer": 0,
      "byteOffset": 75216,
      "byteLength": 576,
      "target": 34962
    },
    {
      "buffer": 0,
      "byteOffset": 75792,
      "byteLength": 576,
      "target": 34962
    },
    {
      "buffer": 0,
      "byteOffset": 76368,
      "byteLength": 144,
      "target": 34963
    },
    {
      "buffer": 0,
      "byteOffset": 76512,
      "byteLength": 12
    },
    {
      "buffer": 0,
      "byteOffset": 76524,
      "byteLength": 36
    },
    {
      "buffer": 0,
      "byteOffset": 76560,
      "byteLength": 20
    },
    {
      "buffer": 0,
      "byteOffset": 76580,
      "byteLength": 60
    },
    {
      "buffer": 0,
      "byteOffset": 76640,
      "byteLength": 80
    }
  ],
  "accessors": [
    {
      "bufferView": 0,
      "componentType": 5126,
      "count": 1710,
      "type": "VEC3",
      "min": [
        -4.5,
        -0.10892165342200777,
        -2.5
      ],
      "max": [
        4.5,
        0.12493888113627183,
        4.5
      ]
    },
    {
      "bufferView": 1,
      "componentType": 5126,
      "count": 1710,
      "type": "VEC3"
    },
    {
      "bufferView": 2,
      "componentType": 5123,
      "count": 1710,
      "type": "SCALAR"
    },
    {
      "bufferView": 3,
      "componentType": 5126,
      "count": 114,
      "type": "VEC3",
      "min": [
        -0.2999943596759812,
        0.003,
        -1.5
      ],
      "max": [
        0.29981046653848076,
        0.003,
        4.0
      ]
    },
    {
      "bufferView": 4,
      "componentType": 5126,
      "count": 114,
      "type": "VEC3"
    },
    {
      "bufferView": 5,
      "componentType": 5123,
      "count": 114,
      "type": "SCALAR"
    },
    {
      "bufferView": 6,
      "componentType": 5126,
      "count": 36,
      "type": "VEC3",
      "min": [
        -2.4,
        -0.015,
        0.35000000000000003
      ],
      "max": [
        2.3,
        -0.015,
        2.6
      ]
    },
    {
      "bufferView": 7,
      "componentType": 5126,
      "count": 36,
      "type": "VEC3"
    },
    {
      "bufferView": 8,
      "componentType": 5123,
      "count": 36,
      "type": "SCALAR"
    },
    {
      "bufferView": 9,
      "componentType": 5126,
      "count": 120,
      "type": "VEC3",
      "min": [
        -2.72,
        0,
        -0.72
      ],
      "max": [
        3.05,
        0.225,
        3.45
      ]
    },
    {
      "bufferView": 10,
      "componentType": 5126,
      "count": 120,
      "type": "VEC3"
    },
    {
      "bufferView": 11,
      "componentType": 5123,
      "count": 180,
      "type": "SCALAR"
    },
    {
      "bufferView": 12,
      "componentType": 5126,
      "count": 64,
      "type": "VEC3",
      "min": [
        -0.8560970723421693,
        0,
        -1.1335276501914877
      ],
      "max": [
        0.9556334741557596,
        0.22,
        0.14170889727856578
      ]
    },
    {
      "bufferView": 13,
      "componentType": 5126,
      "count": 64,
      "type": "VEC3"
    },
    {
      "bufferView": 14,
      "componentType": 5123,
      "count": 96,
      "type": "SCALAR"
    },
    {
      "bufferView": 15,
      "componentType": 5126,
      "count": 56,
      "type": "VEC3",
      "min": [
        -0.9016254407585551,
        0.15,
        -1.1754768273781135
      ],
      "max": [
        1.0042861293943663,
        0.44,
        0.19036155251717246
      ]
    },
    {
      "bufferView": 16,
      "componentType": 5126,
      "count": 56,
      "type": "VEC3"
    },
    {
      "bufferView": 17,
      "componentType": 5123,
      "count": 72,
      "type": "SCALAR"
    },
    {
      "bufferView": 18,
      "componentType": 5126,
      "count": 48,
      "type": "VEC3",
      "min": [
        -0.9,
        0.002,
        -0.8
      ],
      "max": [
        0.8,
        0.005,
        -0.05
      ]
    },
    {
      "bufferView": 19,
      "componentType": 5126,
      "count": 48,
      "type": "VEC3"
    },
    {
      "bufferView": 20,
      "componentType": 5123,
      "count": 72,
      "type": "SCALAR"
    },
    {
      "bufferView": 21,
      "componentType": 5126,
      "count": 432,
      "type": "VEC3",
      "min": [
        -1.12,
        0,
        -0.8200000000000001
      ],
      "max": [
        1.12,
        0.12,
        0.1
      ]
    },
    {
      "bufferView": 22,
      "componentType": 5126,
      "count": 432,
      "type": "VEC3"
    },
    {
      "bufferView": 23,
      "componentType": 5123,
      "count": 648,
      "type": "SCALAR"
    },
    {
      "bufferView": 24,
      "componentType": 5126,
      "count": 138,
      "type": "VEC3",
      "min": [
        -0.11,
        0.06,
        -0.09
      ],
      "max": [
        0.11,
        0.38,
        0.055
      ]
    },
    {
      "bufferView": 25,
      "componentType": 5126,
      "count": 138,
      "type": "VEC3"
    },
    {
      "bufferView": 26,
      "componentType": 5123,
      "count": 204,
      "type": "SCALAR"
    },
    {
      "bufferView": 27,
      "componentType": 5126,
      "count": 96,
      "type": "VEC3",
      "min": [
        -0.065,
        0.0,
        -0.055
      ],
      "max": [
        0.105,
        0.2,
        0.06
      ]
    },
    {
      "bufferView": 28,
      "componentType": 5126,
      "count": 96,
      "type": "VEC3"
    },
    {
      "bufferView": 29,
      "componentType": 5123,
      "count": 144,
      "type": "SCALAR"
    },
    {
      "bufferView": 30,
      "componentType": 5126,
      "count": 42,
      "type": "VEC3",
      "min": [
        -0.125,
        0.11,
        -0.03
      ],
      "max": [
        -0.11,
        0.27,
        0.07
      ]
    },
    {
      "bufferView": 31,
      "componentType": 5126,
      "count": 42,
      "type": "VEC3"
    },
    {
      "bufferView": 32,
      "componentType": 5123,
      "count": 60,
      "type": "SCALAR"
    },
    {
      "bufferView": 33,
      "componentType": 5126,
      "count": 48,
      "type": "VEC3",
      "min": [
        0.065,
        0.195,
        0.035
      ],
      "max": [
        0.125,
        0.36,
        0.065
      ]
    },
    {
      "bufferView": 34,
      "componentType": 5126,
      "count": 48,
      "type": "VEC3"
    },
    {
      "bufferView": 35,
      "componentType": 5123,
      "count": 72,
      "type": "SCALAR"
    },
    {
      "bufferView": 36,
      "componentType": 5126,
      "count": 3,
      "type": "SCALAR",
      "min": [
        0.0
      ],
      "max": [
        1.6
      ]
    },
    {
      "bufferView": 37,
      "componentType": 5126,
      "count": 3,
      "type": "VEC3",
      "min": [
        0.0,
        0.0,
        1.5
      ],
      "max": [
        0.0,
        0.008,
        1.5
      ]
    },
    {
      "bufferView": 38,
      "componentType": 5126,
      "count": 5,
      "type": "SCALAR",
      "min": [
        0.0
      ],
      "max": [
        0.8
      ]
    },
    {
      "bufferView": 39,
      "componentType": 5126,
      "count": 5,
      "type": "VEC3",
      "min": [
        0.0,
        0.0,
        1.5
      ],
      "max": [
        0.0,
        0.025,
        1.5
      ]
    },
    {
      "bufferView": 40,
      "componentType": 5126,
      "count": 5,
      "type": "VEC4",
      "min": [
        0.0,
        0.0,
        -0.02,
        0.9998
      ],
      "max": [
        0.0,
        0.0,
        0.02,
        1.0
      ]
    }
  ],
  "animations": [
    {
      "name": "poc-band-idle",
      "samplers": [
        {
          "input": 36,
          "output": 37,
          "interpolation": "LINEAR"
        }
      ],
      "channels": [
        {
          "sampler": 0,
          "target": {
            "node": 2,
            "path": "translation"
          }
        }
      ]
    },
    {
      "name": "poc-band-travel",
      "samplers": [
        {
          "input": 38,
          "output": 39,
          "interpolation": "LINEAR"
        },
        {
          "input": 38,
          "output": 40,
          "interpolation": "LINEAR"
        }
      ],
      "channels": [
        {
          "sampler": 0,
          "target": {
            "node": 2,
            "path": "translation"
          }
        },
        {
          "sampler": 1,
          "target": {
            "node": 2,
            "path": "rotation"
          }
        }
      ]
    }
  ]
}